# xmcd
#
# Track frame offsets: 
#        150
#        21071
#        41784
#        57451
#        76806
#        94751
#        112876
#        127815
#        145569
#        162829
#        178482
#        194049
#        207159
#        219993
#        232848
#        253348
#        319402
#        328494
#        338118
#
# Disc length: 4792 seconds
#
# Revision: 0
# Processed by: cddbd v1.5.2PL0 Copyright (c) Steve Scherf et al.
# Submitted via: ExactAudioCopy v0.95b3
#
DISCID=1812b613
DTITLE=Jimi Hendrix  - Ladyland Sessions March 68-April 68 (ATM 238)  
DTITLE=FLAC
DYEAR=1900
DGENRE=
TTITLE0=My Friend - alternate mix
TTITLE1=My Friend
TTITLE2=Little Miss Strange - instrumental
TTITLE3=1983 ... (A Merman I Should Turn To Be)
TTITLE4=Somewhere - guitar tracks only
TTITLE5=Somewhere - altered, mono mix
TTITLE6=Somewhere - slight echo on vocals
TTITLE7=Somewhere - heavy echo on vocals
TTITLE8=Somewhere
TTITLE9=Long Hot Summer Night - mono reduction
TTITLE10=Long Hot Summer Night - stereo mix
TTITLE11=Little Miss Strange - alternate mix and guitar
TTITLE12=Little Miss Strange - mono reduction
TTITLE13=Little Miss Strange - stereo mix
TTITLE14=1983 ... (A Merman I Should Turn To Be) - alternate mix
TTITLE15=1983 ... (A Merman I Should Turn to Be) \\ Moon, Turn The Tid
TTITLE15=es ... Gently, Gently Away
TTITLE16=Gypsy Eyes - instrumental
TTITLE17=Gypsy Eyes - instrumental
TTITLE18=Walking Through The Garden
EXTD=
EXTT0=
EXTT1=
EXTT2=
EXTT3=
EXTT4=
EXTT5=
EXTT6=
EXTT7=
EXTT8=
EXTT9=
EXTT10=
EXTT11=
EXTT12=
EXTT13=
EXTT14=
EXTT15=
EXTT16=
EXTT17=
EXTT18=
PLAYORDER=
